<svg width="45" height="45" viewBox="0 0 45 45" fill="none" xmlns="http://www.w3.org/2000/svg">
<g id="Frame 2608168">
<g id="Petals">
<g id="Group 72">
<path id="Rectangle 130" d="M16.8991 13.7498C11.7468 8.73683 15.2958 0 22.4844 0C29.673 0 33.222 8.73684 28.0698 13.7498L22.4844 19.1842L16.8991 13.7498Z" fill="#CBEA7B"/>
<path id="Rectangle 131" d="M16.9313 31.2502C11.7791 36.2632 15.3281 45 22.5166 45C29.7052 45 33.2542 36.2632 28.102 31.2502L22.5166 25.8158L16.9313 31.2502Z" fill="#CBEA7B"/>
</g>
<g id="Group 73">
<path id="Rectangle 130_2" d="M13.7498 28.1014C8.73683 33.2537 0 29.7046 0 22.5161C0 15.3275 8.73684 11.7785 13.7498 16.9307L19.1842 22.5161L13.7498 28.1014Z" fill="#CBEA7B"/>
<path id="Rectangle 131_2" d="M31.2502 28.0692C36.2632 33.2214 45 29.6724 45 22.4838C45 15.2953 36.2632 11.7463 31.2502 16.8985L25.8158 22.4838L31.2502 28.0692Z" fill="#CBEA7B"/>
</g>
</g>
</g>
</svg>
