<svg width="195" height="45" viewBox="0 0 195 45" fill="none" xmlns="http://www.w3.org/2000/svg">
<path d="M16.8991 13.7498C11.7468 8.73683 15.2958 0 22.4844 0C29.673 0 33.222 8.73684 28.0698 13.7498L22.4844 19.1842L16.8991 13.7498Z" fill="#CBEA7B"/>
<path d="M16.9313 31.2502C11.7791 36.2632 15.3281 45 22.5166 45C29.7052 45 33.2542 36.2632 28.102 31.2502L22.5166 25.8158L16.9313 31.2502Z" fill="#CBEA7B"/>
<path d="M13.7498 28.1014C8.73683 33.2537 0 29.7046 0 22.5161C0 15.3275 8.73684 11.7785 13.7498 16.9307L19.1842 22.5161L13.7498 28.1014Z" fill="#CBEA7B"/>
<path d="M31.2502 28.0692C36.2632 33.2214 45 29.6724 45 22.4838C45 15.2953 36.2632 11.7463 31.2502 16.8985L25.8158 22.4838L31.2502 28.0692Z" fill="#CBEA7B"/>
<path d="M64.9988 25.9423V14.6248H68.4188V30.3748H63.4913L56.5838 19.0798H56.2013V30.3748H52.7812V14.6248H57.3938V14.6473H57.7088L64.5938 25.9423H64.9988Z" fill="white"/>
<path d="M80.8613 17.7523H84.2812V30.3748H80.8613V28.5298H80.7037C79.8937 29.6548 78.7462 30.3748 76.4737 30.3748C71.1412 30.3748 71.0063 25.9198 71.0063 24.0748V17.7523H74.4037V24.0748C74.4037 25.0648 74.1788 27.4498 77.4638 27.4498C80.4113 27.4498 80.8613 25.5598 80.8613 23.8498V17.7523Z" fill="white"/>
<path d="M91.5262 20.6773V25.1548V25.4248C91.5262 27.2473 92.3362 26.9998 95.6212 26.8198V30.1498C95.6212 30.1498 94.9462 30.3748 91.5262 30.3748C88.0837 30.3748 88.0837 27.5623 88.0837 25.7398V20.6773H86.4187V17.7973H88.0837V14.1523H91.5262V17.7973H95.6212V20.6773H91.5262Z" fill="white"/>
<path d="M105.254 17.7523C106.154 17.7523 106.897 17.9548 107.482 18.0898L106.942 21.3073C106.627 21.2173 105.749 21.0373 104.669 21.0373C102.127 21.0373 101.384 23.0173 101.384 24.7273V30.3748H97.9641V17.7523H101.384V19.6198H101.587C102.307 18.4048 103.072 17.7523 105.254 17.7523Z" fill="white"/>
<path d="M112.709 30.3748H109.312V17.8423H112.709V30.3748ZM112.709 16.9423H109.312V13.8823H112.709V16.9423Z" fill="white"/>
<path d="M120.164 20.6773V25.1548V25.4248C120.164 27.2473 120.974 26.9998 124.259 26.8198V30.1498C124.259 30.1498 123.584 30.3748 120.164 30.3748C116.721 30.3748 116.721 27.5623 116.721 25.7398V20.6773H115.056V17.7973H116.721V14.1523H120.164V17.7973H124.259V20.6773H120.164Z" fill="white"/>
<path d="M129.933 30.3748H126.536V17.8423H129.933V30.3748ZM129.933 16.9423H126.536V13.8823H129.933V16.9423Z" fill="white"/>
<path d="M139.3 17.5273C143.148 17.5273 146.343 19.5748 146.343 23.9623C146.343 28.3948 143.148 30.3748 139.3 30.3748C135.475 30.3748 132.28 28.3273 132.28 23.9623C132.28 19.6198 135.475 17.5273 139.3 17.5273ZM139.3 27.2698C141.46 27.2698 142.99 26.2348 142.99 23.9623C142.99 21.6223 141.46 20.6548 139.3 20.6548C137.163 20.6548 135.633 21.5773 135.633 23.9623C135.633 26.3248 137.163 27.2698 139.3 27.2698Z" fill="white"/>
<path d="M156.445 17.7523C161.777 17.7523 161.912 22.2298 161.912 24.0748V30.3748H158.515V24.0748C158.515 23.0848 158.717 20.6998 155.455 20.6998C152.485 20.6998 152.057 22.5898 152.057 24.2998V30.3748H148.637V17.7523H152.057V19.6198H152.215C153.025 18.4948 154.172 17.7523 156.445 17.7523Z" fill="white"/>
<path d="M167.887 30.3748H164.489V17.8423H167.887V30.3748ZM167.887 16.9423H164.489V13.8823H167.887V16.9423Z" fill="white"/>
<path d="M176.719 22.7248C179.577 23.1523 182.817 23.6473 182.817 26.6398C182.817 29.7673 180.567 30.3748 176.697 30.3748C173.839 30.3748 171.882 29.8573 170.869 28.8448C169.992 27.9673 169.992 26.9098 170.014 26.2573V26.0098H173.524V26.1223C173.524 27.2023 174.334 27.6973 176.607 27.6973C177.979 27.6973 179.284 27.5173 179.284 26.6848C179.284 25.7398 178.069 25.5598 176.697 25.4023C176.517 25.3798 176.337 25.3573 176.157 25.3348C172.534 24.8623 170.284 24.0523 170.284 21.5323C170.284 19.7773 171.297 17.6848 176.157 17.6848C181.377 17.6848 182.479 20.0023 182.479 21.9373V22.0498H178.992V21.9373C178.992 20.9473 178.137 20.4073 176.157 20.4073C174.244 20.4073 173.839 21.1048 173.839 21.4873C173.839 22.0498 174.222 22.3648 176.427 22.7023L176.719 22.7248Z" fill="white"/>
<path d="M189.501 20.6773V25.1548V25.4248C189.501 27.2473 190.311 26.9998 193.596 26.8198V30.1498C193.596 30.1498 192.921 30.3748 189.501 30.3748C186.059 30.3748 186.059 27.5623 186.059 25.7398V20.6773H184.394V17.7973H186.059V14.1523H189.501V17.7973H193.596V20.6773H189.501Z" fill="white"/>
</svg>
